<svg id="Layer_1" data-name="Layer 1" xmlns="http://www.w3.org/2000/svg" viewBox="0 0 215.01 32.01"><defs><style>.cls-1{fill:#586e75;}</style></defs><path class="cls-1" d="M76.77,27.9h2.36c4.94,0,6.59-3.8,6.59-12.56,0-7.75-1.64-11.16-6.55-11.16h-2.4ZM71.76,0h7.92c7.95,0,11.18,5.24,11.18,15.29,0,10.83-3,16.72-11.64,16.72H71.76Z"/><path class="cls-1" d="M119.75,28.08h3.72c3.17,0,5-1.74,5-5.54,0-3.64-1.65-5.64-5.6-5.64h-3.08ZM122.82,13c3.72,0,4.84-1.52,4.84-4.51S126.11,4,123.11,4h-3.36v9ZM114.87,0h9.27c5.3,0,8.31,3,8.31,8,0,4.12-2,6.05-3.78,6.71,2.32.9,4.75,3,4.75,7.89,0,6-3.79,9.4-9.44,9.4h-9.11Z"/><path class="cls-1" d="M161.75,32V20.39a2.13,2.13,0,0,0-.21-1L153.45,0H159c1.93,5.15,4.43,11.79,5.38,15.09,1.16-3.64,3.68-10.19,5.45-15.09h5.25L166.9,19.48a2.56,2.56,0,0,0-.17,1V32Z"/><polygon class="cls-1" points="0 0 0 4.37 6.94 4.38 6.83 31.97 11.92 32.01 11.92 4.37 18.86 4.37 18.86 0 0 0"/><rect class="cls-1" x="41.47" width="4.98" height="32.01"/><polygon class="cls-1" points="196.15 0 196.15 4.37 203.09 4.37 203.09 32.01 208.07 32.01 208.07 4.38 215.01 4.37 215.01 0 196.15 0"/></svg>